<svg xmlns="http://www.w3.org/2000/svg" width="500" height="222" viewBox="0 0 500 222" version="1.1"><path d="M 106.014 59.750 C 106.022 60.163, 105.048 67.378, 103.849 75.785 C 102.208 87.294, 101.953 91.353, 102.818 92.218 C 103.450 92.850, 104.232 93.102, 104.555 92.778 C 105.034 92.300, 107.941 64.741, 107.987 60.250 C 107.994 59.563, 107.550 59, 107 59 C 106.450 59, 106.007 59.337, 106.014 59.750 M 116.092 79.266 C 110.917 85.995, 106.472 92.306, 106.214 93.291 C 105.919 94.417, 104.987 94.974, 103.704 94.791 C 102.184 94.574, 101.462 95.243, 100.874 97.414 C 99.998 100.652, 100.458 102, 102.439 102 C 103.561 102, 127 69.121, 127 67.547 C 127 65.662, 124.429 68.424, 116.092 79.266" stroke="none" fill="#e40414" fill-rule="evenodd"/><path d="M 56.306 19.965 C 51.557 21.094, 46.978 25.835, 47.100 29.497 C 47.345 36.874, 50.244 40.529, 51.373 34.884 C 52.166 30.922, 53.697 29, 56.063 29 C 58.775 29, 59.566 31.113, 57.436 32.670 C 55.981 33.734, 55.615 35.142, 55.783 39.019 C 55.951 42.876, 55.662 44, 54.500 44 C 52.096 44, 52.758 47.367, 56.059 51.923 C 59.858 57.167, 59.608 59.392, 55.171 59.819 C 50.298 60.287, 47 57.749, 47 53.529 C 47 50.173, 46.941 50.125, 44.058 51.130 C 39.804 52.613, 39.357 53.496, 37.550 63.992 C 36.652 69.212, 35.533 73.867, 35.065 74.335 C 33.941 75.459, 26.018 71.874, 23.595 69.145 C 22.547 67.965, 20.718 67, 19.530 67 C 18.049 67, 16.849 65.907, 15.712 63.521 C 14.525 61.032, 13.596 60.218, 12.446 60.659 C 11.333 61.086, 11.046 61.925, 11.513 63.388 C 11.883 64.550, 12.258 66.927, 12.345 68.672 C 12.433 70.416, 13.466 72.891, 14.642 74.172 C 15.817 75.452, 22.523 90.450, 29.543 107.500 C 36.564 124.550, 42.681 138.920, 43.137 139.433 C 46.010 142.667, 44.070 136.279, 35.662 114.821 C 20.012 74.881, 20.054 75, 21.458 75 C 22.163 75, 25.827 77.250, 29.599 80 C 33.371 82.750, 37.230 85, 38.175 85 C 39.372 85, 40.582 83.109, 42.167 78.763 L 44.441 72.527 45.831 77.449 C 46.855 81.074, 46.953 83.246, 46.204 85.686 C 45.083 89.338, 45.502 89.760, 48.003 87.497 C 49.786 85.884, 66 76.935, 66 77.565 C 66 77.772, 61.820 81.071, 56.710 84.894 C 44.245 94.223, 44.117 94.516, 48.036 104.780 C 51.031 112.624, 52.425 114.175, 54.559 112.041 C 55.172 111.428, 56.296 113.055, 57.668 116.541 C 58.849 119.543, 59.479 122, 59.066 122 C 58.654 122, 57.777 120.200, 57.118 118 C 55.877 113.858, 54.370 112.873, 53.348 115.536 C 52.720 117.172, 57.722 132, 58.901 132 C 59.286 132, 60.133 131.468, 60.783 130.817 C 62.318 129.282, 62.722 129.762, 65.049 135.886 C 67.327 141.883, 66.734 142.875, 64.383 137 C 62.722 132.849, 61.335 131.962, 60.383 134.443 C 59.741 136.117, 67.887 158, 69.153 158 C 69.619 158, 70 157.841, 70 157.646 C 70 157.451, 70.958 151.264, 72.129 143.896 C 73.541 135.003, 74.280 125.626, 74.324 116 C 74.389 102.048, 74.268 101.163, 71.136 92.581 C 68.625 85.700, 68.029 82.787, 68.528 79.836 C 69.469 74.262, 70.638 74.322, 72.004 80.015 L 73.206 85.026 84.828 90.550 C 98.565 97.080, 100.523 97.686, 101.303 95.652 C 101.664 94.713, 102.645 94.356, 103.939 94.694 C 105.380 95.071, 106 94.757, 106 93.648 C 106 92.654, 105.444 92.276, 104.508 92.635 C 103.657 92.962, 102.753 92.519, 102.401 91.604 C 102.017 90.603, 100.605 90, 98.643 90 C 96.585 90, 92.847 88.300, 87.819 85.078 C 79.381 79.672, 79.092 79.165, 76.929 66 C 75.276 55.941, 74.373 54.308, 69.411 52.413 C 64.675 50.604, 63.596 49.649, 62.595 46.377 C 62.120 44.822, 62.890 43.124, 65.473 40.032 C 67.413 37.711, 68.993 34.841, 68.985 33.655 C 68.956 29.529, 66.320 22.678, 64.057 20.845 C 61.605 18.860, 61.162 18.809, 56.306 19.965 M 142.714 66.619 C 142.321 67.012, 142 74.233, 142 82.667 L 142 98 146.525 98 L 151.051 98 150.775 82.250 L 150.500 66.500 146.964 66.202 C 145.020 66.039, 143.107 66.226, 142.714 66.619 M 164.990 68.250 C 160.061 71.605, 157.771 75.295, 157.281 80.676 C 156.158 93.003, 168.903 102.411, 180.282 97.655 C 182.052 96.915, 184.139 95.539, 184.920 94.598 C 186.175 93.084, 186.035 92.580, 183.708 90.253 C 181.219 87.764, 180.975 87.713, 179.209 89.311 C 175.595 92.581, 169.732 91.316, 167.375 86.757 C 165.318 82.781, 166.319 77.681, 169.672 75.043 C 172.741 72.630, 174.530 72.506, 178.259 74.452 C 180.830 75.792, 181.189 75.721, 183.509 73.400 C 184.879 72.030, 186 70.698, 186 70.440 C 186 70.182, 184.537 69.079, 182.750 67.989 C 178.077 65.140, 169.372 65.267, 164.990 68.250 M 200.955 68.084 C 199.173 71.414, 189 96.126, 189 97.125 C 189 97.606, 190.839 98, 193.087 98 C 196.710 98, 197.302 97.659, 198.306 95 C 199.381 92.151, 199.725 92, 205.121 92 C 210.537 92, 210.854 92.141, 211.850 95 C 212.809 97.749, 213.282 98, 217.515 98 C 222.964 98, 223.198 99.741, 215.157 80.500 L 209.306 66.500 205.718 66.194 C 202.866 65.950, 201.890 66.337, 200.955 68.084 M 227 82 L 227 98 238 98 L 249 98 249 94.500 L 249 91 242 91 L 235 91 235 88 L 235 85 241.563 85 L 248.127 85 247.813 81.750 L 247.500 78.500 241.248 78.500 C 235.246 78.500, 234.996 78.400, 234.996 76 C 234.996 73.555, 235.140 73.507, 241.498 73.835 L 248 74.171 248 70.085 L 248 66 237.500 66 L 227 66 227 82 M 253.445 68.688 C 253.793 70.235, 255.765 77.350, 257.829 84.500 L 261.580 97.500 265.704 97.803 L 269.827 98.107 271.464 92.303 C 272.365 89.111, 273.668 84.734, 274.359 82.575 L 275.617 78.649 278.474 88.325 L 281.331 98 285.416 97.998 L 289.500 97.997 293.778 82.748 C 296.130 74.362, 298.043 67.137, 298.028 66.693 C 298.012 66.248, 296.087 66.023, 293.750 66.193 L 289.500 66.500 287.500 75.249 C 286.400 80.061, 285.163 83.999, 284.750 83.999 C 284.337 84, 284 83.468, 284 82.818 C 284 82.168, 283.044 78.095, 281.877 73.767 L 279.753 65.897 275.631 66.199 L 271.508 66.500 268.927 75.877 L 266.345 85.255 263.922 75.877 L 261.500 66.500 257.157 66.188 C 252.863 65.879, 252.821 65.908, 253.445 68.688 M 204.086 79.500 C 203.456 81.150, 202.743 83.063, 202.502 83.750 C 202.215 84.568, 203.089 85, 205.031 85 C 208.345 85, 208.373 84.907, 206.540 80 L 205.232 76.500 204.086 79.500 M 36.505 94.978 C 35.818 98.107, 36.595 102, 37.907 102 C 39.337 102, 41.015 96.907, 40.396 94.443 C 39.549 91.069, 37.295 91.379, 36.505 94.978 M 40.506 104.973 C 40.015 107.210, 41.139 111.353, 45.052 121.723 C 47.911 129.300, 50.472 137.143, 50.744 139.151 C 51.329 143.488, 48.301 150.721, 42.040 159.941 C 37.136 167.162, 33 175.148, 33 177.395 C 33 178.498, 33.904 179, 35.886 179 C 38.376 179, 39.961 177.470, 47.456 167.828 C 52.232 161.684, 57.282 154.404, 58.677 151.651 L 61.213 146.646 52.357 124.331 C 47.485 112.058, 42.973 102.013, 42.329 102.008 C 41.686 102.004, 40.865 103.338, 40.506 104.973 M 150.209 115.668 C 146.117 117.684, 143.338 121.141, 141.870 126.039 C 137.898 139.297, 152.019 151.355, 164.553 145.408 C 169.542 143.040, 170.728 141.253, 168.427 139.570 C 166.810 138.388, 166.231 138.460, 164.144 140.102 C 161.462 142.211, 156.354 142.574, 152.712 140.915 C 145.785 137.758, 144.995 125.934, 151.367 120.772 C 154.063 118.589, 160.824 118.488, 163.820 120.587 C 165.615 121.844, 166.389 121.922, 167.543 120.964 C 169.705 119.170, 169.350 118.184, 165.750 115.989 C 161.769 113.562, 154.775 113.417, 150.209 115.668 M 175.224 130.250 L 175.500 145.500 178.250 145.816 L 181 146.133 181 139.066 L 181 132 188 132 L 195 132 195 139 L 195 146 198 146 L 201 146 201 130.500 L 201 115 198 115 L 195 115 195 121.250 L 195 127.500 188 127.500 L 181 127.500 181 121.250 L 181 115 177.974 115 L 174.948 115 175.224 130.250 M 218.108 117.184 C 217.617 118.458, 214.692 125.272, 211.607 132.328 C 208.523 139.383, 206 145.345, 206 145.578 C 206 145.810, 207.315 146, 208.922 146 C 211.376 146, 212.030 145.438, 213 142.500 L 214.155 139 221.500 139 L 228.845 139 230 142.500 C 230.970 145.438, 231.624 146, 234.078 146 C 235.685 146, 237 145.818, 237 145.595 C 237 145.373, 234.116 138.510, 230.591 130.345 C 224.879 117.117, 223.899 115.466, 221.591 115.184 C 219.645 114.946, 218.779 115.443, 218.108 117.184 M 242 130.500 L 242 146 245 146 L 248 146 248 139.088 C 248 133.076, 248.228 132.210, 249.750 132.431 C 250.718 132.571, 253.211 135.658, 255.332 139.342 C 258.678 145.156, 259.533 146, 262.082 146 C 263.687 146, 265 145.793, 265 145.540 C 265 145.287, 263.226 142.274, 261.057 138.844 L 257.114 132.608 259.307 131.158 C 262.673 128.931, 264 126.877, 264 123.891 C 264 117.199, 260.425 115, 249.550 115 L 242 115 242 130.500 M 268 117 C 268 118.733, 268.667 119, 273 119 L 278 119 278 132.500 L 278 146 280.500 146 L 283 146 283 132.500 L 283 119 288 119 C 292.333 119, 293 118.733, 293 117 C 293 115.107, 292.333 115, 280.500 115 C 268.667 115, 268 115.107, 268 117 M 298 130.500 L 298 146 309.070 146 C 319.977 146, 320.134 145.967, 319.820 143.750 C 319.520 141.638, 319.026 141.500, 311.748 141.500 L 303.997 141.500 303.998 136.750 L 304 132 311.070 132 C 317.765 132, 318.122 131.885, 317.820 129.820 C 317.523 127.797, 317.013 127.658, 310.750 127.889 L 304 128.138 304 123.569 L 304 119 311.500 119 C 318.333 119, 319 118.822, 319 117 C 319 115.127, 318.333 115, 308.500 115 L 298 115 298 130.500 M 326 130.500 L 326 146 328.500 146 C 330.906 146, 331 145.759, 331 139.617 C 331 134.065, 331.262 133.165, 333.009 132.708 C 334.648 132.279, 335.763 133.457, 339.053 139.091 C 342.641 145.234, 343.425 146, 346.126 146 L 349.163 146 347.187 142.750 C 346.100 140.963, 344.298 137.975, 343.182 136.111 L 341.153 132.722 344.576 129.493 C 348.917 125.399, 349.068 121.914, 345.077 117.923 C 342.329 115.175, 341.671 115, 334.077 115 L 326 115 326 130.500 M 355 130.500 L 355 146 365.500 146 L 376 146 376 143.500 C 376 141.042, 375.867 141, 368 141 L 360 141 360 136.500 L 360 132 367.500 132 C 374.333 132, 375 131.822, 375 130 C 375 128.178, 374.333 128, 367.500 128 L 360 128 360 123.500 L 360 119 368 119 C 375.333 119, 376 118.833, 376 117 C 376 115.127, 375.333 115, 365.500 115 L 355 115 355 130.500 M 383 130.599 L 383 146.199 391.928 145.849 C 401.413 145.478, 404.200 144.292, 408.214 138.915 C 413.131 132.329, 410.840 121.749, 403.576 117.492 C 399.984 115.387, 398.057 115, 391.162 115 L 383 115 383 130.599 M 248 123.500 L 248 128 251.929 128 C 255.918 128, 259 126.032, 259 123.485 C 259 121.371, 254.919 119, 251.277 119 C 248.060 119, 248 119.082, 248 123.500 M 331 123.500 L 331 128 335.345 128 C 338.307 128, 340.224 127.409, 341.369 126.145 C 344.540 122.640, 341.074 119, 334.566 119 C 331.006 119, 331 119.008, 331 123.500 M 388 130.287 L 388 141.574 394.129 140.988 C 399.180 140.505, 400.675 139.917, 402.629 137.645 C 405.480 134.331, 405.845 127.652, 403.369 124.117 C 401.346 121.228, 396.192 119, 391.532 119 L 388 119 388 130.287 M 218.787 127.887 L 216.150 134 221.142 134 C 226.720 134, 226.683 134.157, 223.067 125.641 L 221.425 121.775 218.787 127.887 M 60.261 153.750 C 59.587 155.262, 54.984 161.225, 50.033 167 C 45.083 172.775, 41.025 177.950, 41.015 178.500 C 41.006 179.082, 43.109 179.354, 46.050 179.150 C 51.005 178.807, 51.243 178.638, 58.551 170.280 C 62.648 165.593, 66 160.968, 66 160.002 C 66 157.712, 63.190 151, 62.231 151 C 61.822 151, 60.936 152.238, 60.261 153.750 M 183.001 163.123 C 176.905 165.554, 173 171.577, 173 178.549 C 173 185.099, 175.443 189.589, 180.673 192.654 C 184.321 194.792, 186.001 195.165, 190.363 194.803 C 198.164 194.156, 204.114 189.123, 198.997 187.499 C 197.779 187.113, 196.379 187.478, 195.426 188.432 C 193.134 190.724, 185.865 190.468, 182.707 187.984 C 174.521 181.545, 178.822 167, 188.912 167 C 190.916 167, 193.547 167.695, 194.760 168.545 C 196.447 169.726, 197.440 169.835, 198.983 169.009 C 201.956 167.418, 201.487 166.414, 196.684 164.089 C 192.076 161.858, 187.061 161.504, 183.001 163.123 M 215.001 163.123 C 208.925 165.546, 205 171.577, 205 178.490 C 205 188.650, 212.447 195.625, 222.412 194.799 C 229.841 194.183, 235.915 189.333, 231.419 187.607 C 230.549 187.273, 228.874 187.675, 227.696 188.500 C 224.584 190.680, 217.792 190.411, 214.707 187.984 C 206.442 181.483, 210.725 167, 220.912 167 C 222.916 167, 225.547 167.695, 226.760 168.545 C 228.447 169.726, 229.440 169.835, 230.983 169.009 C 233.956 167.418, 233.487 166.414, 228.684 164.089 C 224.076 161.858, 219.061 161.504, 215.001 163.123 M 247.001 163.123 C 240.905 165.554, 237 171.577, 237 178.549 C 237 185.099, 239.443 189.589, 244.673 192.654 C 248.375 194.824, 249.973 195.167, 254.585 194.785 C 260.414 194.301, 263.896 192.359, 267.438 187.615 C 270.376 183.680, 270.357 173.303, 267.406 169.323 C 262.879 163.219, 253.730 160.440, 247.001 163.123 M 468.775 163.559 C 465.486 165.344, 464 167.892, 464 171.746 C 464 175.404, 466.856 178.476, 471.702 180.033 C 478.988 182.373, 481.146 186.548, 476.606 189.523 C 473.985 191.240, 469.846 190.725, 467.956 188.447 C 467.063 187.372, 466.432 187.338, 464.915 188.285 C 462.272 189.936, 462.494 190.721, 466.250 193.011 C 471.305 196.093, 477.176 195.663, 481.465 191.896 C 488.011 186.149, 485.730 180.083, 475.605 176.320 C 469.927 174.209, 467.956 171.886, 469.606 169.250 C 470.930 167.136, 476.110 166.453, 479.018 168.009 C 480.604 168.858, 481.484 168.843, 482.564 167.947 C 484.786 166.102, 484.299 165.023, 480.532 163.449 C 476.168 161.626, 472.270 161.662, 468.775 163.559 M 146.122 177.966 C 142.614 186.174, 139.802 193.239, 139.872 193.667 C 139.942 194.095, 141.012 194.445, 142.250 194.446 C 143.867 194.447, 144.995 193.400, 146.258 190.724 L 148.016 187 154.926 187 L 161.835 187 163.668 190.694 C 164.910 193.199, 166.224 194.432, 167.750 194.526 C 168.988 194.603, 170 194.178, 170 193.583 C 170.001 192.987, 167.188 185.871, 163.750 177.768 C 158.071 164.382, 157.272 163.036, 155 163.039 C 152.731 163.043, 151.911 164.420, 146.122 177.966 M 277 174.550 C 277 187.494, 278.093 190.963, 282.967 193.483 C 287.255 195.700, 293.204 195.414, 296.486 192.832 C 300.812 189.429, 302 185.272, 302 173.532 L 302 163 299 163 L 296 163 296 174.845 C 296 188.631, 295.112 190.373, 288.371 189.816 C 282.997 189.372, 282.033 186.934, 282.015 173.750 L 282 163 279.500 163 L 277 163 277 174.550 M 310 178.333 C 310 186.767, 310.251 193.918, 310.558 194.225 C 310.865 194.531, 311.976 194.558, 313.027 194.283 C 314.749 193.832, 314.966 192.632, 315.219 182.141 L 315.500 170.500 322.424 181.352 C 330.585 194.144, 331.109 194.731, 334.161 194.508 C 336.493 194.337, 336.501 194.293, 336.775 178.668 L 337.051 163 334.525 163 L 332 163 331.981 174.750 L 331.961 186.500 324.246 174.750 C 317.006 163.724, 316.330 163, 313.266 163 L 310 163 310 178.333 M 342.180 165.250 C 342.461 167.223, 343.085 167.500, 347.252 167.500 L 352.003 167.500 352.002 180.583 C 352.001 187.779, 352.251 193.918, 352.558 194.225 C 352.865 194.531, 353.977 194.557, 355.030 194.282 C 356.773 193.826, 356.968 192.616, 357.222 180.673 L 357.500 167.564 362.250 167.858 C 366.763 168.136, 367 168.023, 367 165.576 L 367 163 354.430 163 C 341.967 163, 341.864 163.019, 342.180 165.250 M 372.527 178.476 C 368.782 187.042, 365.894 194.225, 366.109 194.437 C 366.324 194.650, 367.719 194.589, 369.208 194.303 C 371.195 193.921, 372.215 192.879, 373.036 190.391 L 374.155 187 381.377 187 L 388.598 187 389.823 190.388 C 390.710 192.839, 391.803 193.921, 393.774 194.300 C 395.273 194.588, 396.672 194.654, 396.881 194.447 C 397.091 194.240, 394.313 187.193, 390.708 178.786 C 385.046 165.581, 383.826 163.459, 381.744 163.200 C 379.526 162.923, 378.795 164.135, 372.527 178.476 M 402 178.500 L 402 194 405.061 194 L 408.121 194 407.811 182.498 C 407.640 176.172, 407.604 170.997, 407.731 170.998 C 407.858 170.999, 410.943 175.613, 414.587 181.250 C 423.023 194.303, 423.497 194.819, 426.525 194.240 L 429 193.767 429 178.383 L 429 163 426.500 163 L 424 163 424 174.613 L 424 186.226 416.383 174.613 C 409.150 163.585, 408.596 163, 405.383 163 L 402 163 402 178.500 M 435 165.601 C 435 168.069, 435.228 168.183, 439.500 167.843 L 444 167.486 444 180.743 L 444 194 447 194 L 450 194 450 180.743 L 450 167.486 454.359 167.832 C 457.730 168.100, 458.863 167.798, 459.362 166.499 C 459.716 165.575, 459.753 164.410, 459.444 163.910 C 459.135 163.409, 453.509 163, 446.941 163 L 435 163 435 165.601 M 59.744 170.856 C 56.028 174.510, 52.990 177.950, 52.993 178.500 C 52.996 179.076, 55.068 179.356, 57.878 179.162 C 62.075 178.871, 63.323 178.242, 66.811 174.662 C 70.778 170.590, 70.836 170.430, 69.481 167.250 C 68.720 165.463, 67.737 164.048, 67.298 164.106 C 66.859 164.165, 63.460 167.202, 59.744 170.856 M 246.707 169.016 C 243.023 171.913, 241.464 177.268, 242.904 182.075 C 246.154 192.922, 261.470 192.780, 263.918 181.879 C 264.908 177.469, 263.025 171.274, 259.927 168.750 C 256.929 166.308, 249.971 166.448, 246.707 169.016 M 152.307 176.039 L 150.136 182 155.012 182 L 159.889 182 157.777 176.750 C 156.615 173.863, 155.397 171.180, 155.071 170.789 C 154.745 170.398, 153.501 172.760, 152.307 176.039 M 379.196 174.982 C 377.988 177.889, 377 180.657, 377 181.133 C 377 181.610, 379.055 182, 381.567 182 C 386.665 182, 386.651 182.081, 383.051 173.603 L 381.392 169.698 379.196 174.982 M 67.250 176.015 C 65.463 177.641, 64 179.148, 64 179.363 C 64 179.758, 73.253 178.938, 73.787 178.496 C 74.255 178.109, 71.733 172.997, 71.089 173.029 C 70.765 173.045, 69.037 174.389, 67.250 176.015 M 24.200 188.512 C 24.365 191.543, 24.837 194.018, 25.250 194.012 C 25.663 194.005, 38.825 194, 54.500 194 L 83 194 83 188.500 L 83 183 53.450 183 L 23.900 183 24.200 188.512" stroke="none" fill="#040404" fill-rule="evenodd"/></svg>